<svg xmlns="http://www.w3.org/2000/svg" width="18" height="18" viewBox="0 0 18 18" fill="none">
  <path d="M18 2.25H3.1815L3.15 1.98675C3.08554 1.43956 2.82254 0.935049 2.41087 0.568858C1.9992 0.202667 1.46747 0.000256345 0.9165 0L0 0V1.5H0.9165C1.1002 1.50002 1.2775 1.56747 1.41478 1.68954C1.55206 1.81161 1.63976 1.97981 1.66125 2.16225L2.85 12.2633C2.91446 12.8104 3.17746 13.315 3.58913 13.6811C4.0008 14.0473 4.53253 14.2497 5.0835 14.25H15V12.75H5.0835C4.89968 12.75 4.72229 12.6824 4.58499 12.5602C4.4477 12.438 4.36007 12.2696 4.33875 12.087L4.2405 11.25H16.377L18 2.25ZM15.123 9.75H4.06425L3.3585 3.75H16.2052L15.123 9.75Z" fill="#757C82"/>
  <path d="M5.25 18C6.07843 18 6.75 17.3284 6.75 16.5C6.75 15.6716 6.07843 15 5.25 15C4.42157 15 3.75 15.6716 3.75 16.5C3.75 17.3284 4.42157 18 5.25 18Z" fill="#757C82"/>
  <path d="M12.75 18C13.5784 18 14.25 17.3284 14.25 16.5C14.25 15.6716 13.5784 15 12.75 15C11.9216 15 11.25 15.6716 11.25 16.5C11.25 17.3284 11.9216 18 12.75 18Z" fill="#757C82"/>
</svg>