<svg width="23" height="20" viewBox="0 0 23 20" fill="none" xmlns="http://www.w3.org/2000/svg">
<path id="Vector" d="M6.23129 0C7.30999 0.016605 8.36516 0.314612 9.29024 0.863927C10.2153 1.41324 10.9776 2.19441 11.5 3.12855C12.0224 2.19441 12.7847 1.41324 13.7098 0.863927C14.6348 0.314612 15.69 0.016605 16.7687 0C18.4883 0.0739388 20.1084 0.818405 21.2751 2.07075C22.4418 3.3231 23.0603 4.98153 22.9954 6.68372C22.9954 10.9945 18.4106 15.7025 14.5654 18.8946C13.7069 19.6086 12.6214 20 11.5 20C10.3786 20 9.2931 19.6086 8.43457 18.8946C4.58937 15.7025 0.00463676 10.9945 0.00463676 6.68372C-0.0602646 4.98153 0.558195 3.3231 1.7249 2.07075C2.89161 0.818405 4.51172 0.0739388 6.23129 0Z" fill="#C7D2E0"/>
</svg>
