<svg xmlns="http://www.w3.org/2000/svg" width="176" height="72" viewBox="0 0 176 72" fill="none">
  <path fill-rule="evenodd" clip-rule="evenodd" d="M13.6203 12.9841C13.6203 12.4487 13.7988 10.9316 14.6465 9.81616C17.1898 7.09441 24.2396 2.98947 32.3602 5.93432C34.6804 6.87132 35.2158 7.13903 36.7775 8.2545C38.0715 9.1915 39.1423 10.2623 39.9008 11.6455C40.5701 12.8056 40.7486 14.055 40.7486 15.3935C40.7486 15.9289 40.704 16.4198 40.704 16.9552C40.704 17.089 40.7486 17.2675 40.7932 17.4014C41.5517 15.7505 41.641 14.055 41.1502 12.3594C40.6593 10.6639 39.5885 9.28073 38.3392 8.07602C38.3838 8.03141 38.4284 7.98679 38.5176 7.94217C38.6961 8.0314 38.8746 8.07602 39.0531 8.16526C40.1239 8.83454 41.1502 9.6823 41.8641 10.7085C43.4703 12.9395 44.1396 15.4381 43.3365 18.1599C42.578 20.6585 40.9271 22.3541 38.7407 23.5588C38.4284 23.7372 38.0715 23.8711 37.7591 24.0496C37.5806 24.1388 37.3576 24.2727 37.3576 24.4065C37.3576 24.585 37.536 24.7635 37.6699 24.8973C38.6515 25.5666 39.7224 26.1913 40.704 26.9052C42.6672 28.333 44.2289 30.1177 45.4782 32.1702C48.1107 36.7213 47.0398 41.8525 47.1737 41.9864C47.2629 41.7186 48.423 38.4169 47.1737 33.7765C46.6383 32.1256 45.7905 30.6086 44.675 29.27C44.0504 28.5561 43.4257 27.8422 42.8011 27.1283C42.7118 26.9944 42.6226 26.8606 42.5333 26.7267C42.578 26.6821 42.578 26.6375 42.6226 26.5929C42.8011 26.6375 43.0241 26.6821 43.2026 26.7713C44.5858 27.6637 46.0136 28.5561 47.0845 29.85C48.0215 30.9655 48.7354 32.2148 49.2262 33.5534C49.9401 35.472 50.4309 37.4352 50.3416 39.5323C50.2524 43.2357 48.78 46.359 46.2813 49.0361C44.4073 51.044 42.1318 52.5164 39.5885 53.5873C37.9376 54.3012 36.1975 54.792 34.4573 55.1489C30.8878 55.9521 27.3629 55.6844 23.9273 54.5689C22.1871 54.0335 20.5362 53.2749 18.8407 52.561C15.7174 51.2225 12.6387 49.8393 9.51537 48.5453C8.623 48.1884 7.59676 48.0545 6.65977 48.6346C5.94586 49.0808 5.63353 50.1516 5.99048 50.9101C6.39205 51.6687 7.19519 51.981 8.08757 51.7133C8.26604 51.6687 8.48914 51.7133 8.66761 51.7133C8.623 51.8918 8.57838 52.1595 8.44452 52.2933C7.23981 53.5873 5.63353 53.6319 4.29497 52.2487C3.80416 51.7579 3.53644 51.044 3.17949 50.3747C3.00102 50.8655 3.04564 51.4456 3.26873 51.8471C4.16111 53.6765 6.21358 54.9258 8.53376 53.855C9.3369 53.4534 9.91694 52.7395 10.3185 51.9364C10.4078 51.7579 10.5416 51.624 10.6755 51.4902C10.7647 51.6687 10.9432 51.8918 10.8986 52.0702C10.8093 53.6765 10.14 54.9258 8.71223 55.729C7.4629 56.3983 6.16896 56.7106 4.74115 56.3983C2.86716 56.0413 1.61783 54.8812 0.770074 53.2749C-0.25616 51.3563 -0.211541 49.3039 0.636218 47.3852C1.57321 45.3328 3.26873 44.1727 5.49968 43.7711C7.81986 43.3695 9.91694 44.0388 11.8802 45.1989C14.0219 46.5375 16.2082 47.7868 18.3945 49.1254C20.4916 50.4193 22.6779 51.4902 25.132 52.0702C27.4968 52.6503 29.9062 52.561 32.3156 52.0702C34.0111 51.7133 35.6174 51.1778 37.1345 50.3301C38.7854 49.3931 40.2132 48.1884 41.3286 46.6713C42.2656 45.3774 42.9795 43.9942 43.3811 42.4326C43.8719 40.5139 43.9611 38.5953 43.6042 36.6321C43.158 33.9103 41.9087 31.5902 40.0347 29.6269C39.2315 28.7792 38.2945 28.0653 37.3129 27.4852C35.662 26.5482 33.9665 25.7451 32.271 24.942C31.691 24.6742 31.0217 24.4958 30.4416 24.2281C30.2631 24.1834 30.1739 24.005 29.9954 23.8711C30.1739 23.7819 30.3078 23.648 30.4862 23.6034C32.3156 23.2911 34.0111 22.5772 35.3497 21.2832C37.4468 19.2307 38.6069 16.3751 37.0898 13.2072C33.1188 6.11279 23.7488 6.64822 20.09 9.01302C19.1084 9.63768 17.9483 10.7978 17.2791 11.824C16.7436 12.6718 16.5652 15.0366 16.5205 15.9736C16.4759 18.1599 16.4759 17.089 16.4313 19.32C16.4313 23.2911 16.3867 27.2175 16.3867 31.1886C16.3867 33.2857 16.3867 35.3828 16.7436 37.4799C17.056 39.0861 17.636 40.5586 18.6176 41.8971C19.7331 43.3695 20.9378 44.7527 22.5887 45.6897C25.0874 47.1622 27.7199 47.8314 30.5755 47.2514C32.628 46.8498 34.4573 45.9128 35.8405 44.2619C37.4022 42.3879 37.9822 40.2016 37.8037 37.7922C37.3576 34.2227 35.2605 31.8133 35.2605 31.8133C35.2605 31.8133 38.2053 36.0074 36.5544 41.6294C35.3051 44.1727 33.1634 45.8682 30.397 46.4929C28.6569 46.8944 23.3026 46.8052 21.8302 42.968C20.8039 40.2908 22.6333 38.9077 22.6333 38.9077C22.6333 38.9077 21.7856 41.5402 23.4811 43.3249C24.9535 44.8866 27.3629 45.9128 30.0401 45.1097C32.7618 44.3065 33.5649 42.2541 34.0558 39.8893C34.3681 38.4169 34.2342 36.8552 33.9219 35.4274C33.5203 33.6873 32.5833 32.4379 31.3786 31.0994C30.397 29.9393 29.1923 29.0915 27.8983 28.333C25.8905 27.1283 23.8827 25.879 22.0087 24.4511C20.3578 23.2018 18.93 21.6848 18.2607 19.6323C17.6806 17.8029 17.6806 15.9736 18.4391 14.1888C19.3315 12.2256 20.8486 10.9763 22.8564 10.2177C24.9981 9.36997 27.1844 9.28073 29.3708 9.77154C31.7802 10.3516 33.788 11.5563 34.8143 13.9657C35.662 15.9736 35.3497 17.8029 33.9665 19.4538C32.5833 21.1494 30.7986 21.9971 28.6569 22.1756C28.3892 22.2202 28.0768 22.131 27.8091 22.0863C27.8091 22.0417 27.8091 21.9525 27.8091 21.9079C27.943 21.8633 28.0768 21.774 28.2107 21.7294C29.46 21.3278 30.6201 20.7478 31.5125 19.7662C32.0479 19.1861 32.4495 18.5168 32.6279 17.7137C32.7172 17.2675 32.8064 16.7767 32.851 16.3305C32.851 16.152 32.8064 15.9289 32.7618 15.7059C32.3602 16.6875 32.0925 17.6245 31.5571 18.383C31.0663 19.1415 30.3524 19.8108 29.4154 20.0339C29.3708 19.9893 29.3262 19.9446 29.2815 19.9446C29.4154 19.7215 29.5046 19.4538 29.6385 19.2307C30.8432 17.2229 30.7986 15.1704 29.5046 13.3411C28.4784 11.824 27.0506 11.3332 25.2212 12.0025C23.9273 12.4933 23.1241 13.3411 22.6779 14.635C21.7856 17.1783 22.4548 19.4092 23.7934 21.5063C24.7304 22.9787 26.069 24.0496 27.6306 24.8527C29.1477 25.6112 30.6647 26.3251 32.1818 27.1283C33.5203 27.8422 34.8589 28.5115 36.1082 29.4038C37.6699 30.4747 39.0084 31.7686 39.9008 33.4642C40.5701 34.7135 41.0163 36.0521 41.1948 37.4799C41.3732 38.9077 41.4179 40.3355 40.9717 41.7633C40.4363 43.5034 39.5439 45.0204 38.2945 46.3144C36.2421 48.4561 33.6542 49.4823 30.8432 49.8839C28.7461 50.1516 26.6936 49.9285 24.6412 49.3485C22.2764 48.6792 20.1793 47.5191 18.1268 46.2252C16.9667 45.4666 15.8959 44.6635 14.6912 43.9496C13.2187 43.0572 11.7017 42.2541 10.14 41.4509C9.78309 41.2725 9.60461 41.0047 9.60461 40.6032C9.64923 36.4536 9.64923 32.3041 9.64923 28.1545C9.64923 22.3541 9.69385 18.7399 9.69385 12.8949C9.69385 12.4933 9.64923 12.4041 9.55999 12.0471C9.20304 10.5747 8.53376 9.99464 6.92748 9.63768C6.0351 9.45921 5.18734 9.63768 4.42882 10.2177C4.16111 10.4408 3.8934 10.6193 3.58106 10.7978C2.9564 11.1993 2.42097 10.9763 2.28712 10.2177C2.15326 9.45921 2.19788 8.65607 2.64407 7.98679C3.22411 7.04979 5.00887 6.06818 7.90909 7.36212C10.0954 8.43298 12.3264 9.81616 12.4602 12.9395C12.5941 16.9998 12.5941 16.3305 12.7279 20.3462C12.7726 21.4171 12.951 35.6951 13.0403 36.766" fill="#F7AB42"/>
  <path fill-rule="evenodd" clip-rule="evenodd" d="M19.1979 3.39102C18.9302 3.61412 18.7071 3.83721 18.4394 4.06031C17.3239 5.08654 16.1638 6.15739 15.0484 7.18363C14.6022 7.62981 14.1114 8.03138 13.6652 8.47757C13.6205 8.47757 13.6205 8.47757 13.5759 8.52219C13.5759 8.47757 13.5759 8.47757 13.5759 8.43295C13.6205 8.2991 13.7098 8.16524 13.7544 8.03138C14.4683 6.51434 15.1376 4.9973 15.8515 3.48026C15.8515 3.43564 15.8961 3.39102 15.9407 3.39102C17.0116 3.39102 18.0824 3.39102 19.1533 3.39102C19.1533 3.39102 19.1533 3.39102 19.1979 3.39102Z" fill="#F7AB42"/>
  <path fill-rule="evenodd" clip-rule="evenodd" d="M7.01685 3.39102C7.06146 3.39102 7.10608 3.39102 7.1507 3.39102C8.17694 3.39102 9.20317 3.39102 10.274 3.39102C10.3633 3.39102 10.4079 3.39102 10.4079 3.48026C11.1664 5.13116 11.9249 6.78206 12.6388 8.43295V8.47757V8.52219C12.5942 8.52219 12.5942 8.52219 12.5496 8.52219C12.505 8.47757 12.4157 8.43295 12.3711 8.38834C10.9879 7.09439 9.56012 5.80044 8.17694 4.50649C7.81999 4.19416 7.46303 3.83721 7.10608 3.52488C7.10608 3.48026 7.06146 3.43564 7.01685 3.39102Z" fill="#F7AB42"/>
  <path fill-rule="evenodd" clip-rule="evenodd" d="M13.0852 7.49596C12.4605 6.11277 11.8358 4.77421 11.2112 3.39102C12.4605 3.39102 13.7098 3.39102 14.9592 3.39102C14.3345 4.77421 13.7545 6.15739 13.0852 7.49596Z" fill="#F7AB42"/>
  <path fill-rule="evenodd" clip-rule="evenodd" d="M13.3079 0C14.3787 0 15.4496 0 16.5204 0C16.1635 0.80314 15.8065 1.56166 15.4496 2.3648C14.7357 1.56166 14.0218 0.80314 13.3079 0Z" fill="#F7AB42"/>
  <path fill-rule="evenodd" clip-rule="evenodd" d="M10.7647 2.3648C10.3631 1.56166 10.0508 0.80314 9.69385 0C10.7647 0 11.8356 0 12.9064 0C12.1925 0.80314 11.4786 1.56166 10.7647 2.3648Z" fill="#F7AB42"/>
  <path fill-rule="evenodd" clip-rule="evenodd" d="M19.2425 2.72174C18.2163 2.72174 17.1901 2.72174 16.1638 2.72174C16.5208 1.9186 16.8777 1.11546 17.2793 0.2677C17.9486 1.11546 18.5732 1.9186 19.2425 2.72174Z" fill="#F7AB42"/>
  <path fill-rule="evenodd" clip-rule="evenodd" d="M10.0067 2.72174C8.98045 2.72174 7.95421 2.72174 6.92798 2.72174C7.59726 1.9186 8.22193 1.11546 8.89121 0.2677C9.29278 1.11546 9.64973 1.9186 10.0067 2.72174Z" fill="#F7AB42"/>
  <path fill-rule="evenodd" clip-rule="evenodd" d="M14.7359 2.72177C13.6204 2.72177 12.5496 2.72177 11.4341 2.72177C11.9695 2.0971 12.5496 1.51706 13.085 0.892395C13.665 1.51706 14.2005 2.0971 14.7359 2.72177Z" fill="#F7AB42"/>
  <path d="M78.2284 34.4458L78.1392 41.1832C78.1392 46.359 78.3176 50.2855 78.7192 52.9626C78.8531 53.0072 79.1208 53.0965 79.5223 53.1411C79.6116 53.1411 79.7454 53.1857 79.9685 53.2303C79.9685 53.2303 80.0132 53.2303 80.1024 53.275C80.147 53.275 80.1916 53.275 80.2362 53.275V53.8996C80.1024 53.8996 79.6562 53.8996 78.9423 53.8996H77.5145C77.3806 52.5164 77.2468 51.0886 77.2022 49.7054C77.2022 48.9915 77.1575 47.8761 77.1129 46.4037L77.0237 43.3249C77.0237 42.5218 77.0237 41.7633 77.0237 41.0048C77.0237 40.3801 77.0683 38.64 77.1575 35.7397C77.2022 34.2673 77.4253 32.8395 77.8268 31.5009C78.4515 29.5823 79.3439 28.333 80.5486 27.6637L80.8609 28.6007C79.1654 29.7608 78.273 31.4117 78.2284 34.4458ZM75.1943 41.3617C75.1497 38.1045 75.2389 35.7844 75.5513 34.3119C75.8636 32.6164 76.5329 31.2332 77.5145 30.0731C76.6667 32.2149 76.2652 34.535 76.2206 36.9445C76.2206 37.346 76.2206 38.0599 76.2206 39.0862C76.2206 40.2909 76.2652 41.0048 76.2652 41.1832V43.7711C76.2652 44.842 76.3098 45.6451 76.3098 46.1359C76.3098 48.1884 76.2652 50.2409 76.1759 52.1595C76.1759 52.7395 76.1313 53.2303 76.0421 53.6765L73.1418 54.2566V53.6765C73.3649 53.6319 74.2573 53.1857 75.0158 53.0965C75.0605 52.2933 75.1497 51.0886 75.1943 49.527V46.4929C75.1943 45.8682 75.1943 44.9758 75.2389 43.8158C75.1943 43.0126 75.1943 42.2095 75.1943 41.3617Z" fill="#F7AB42"/>
  <path d="M98.3072 52.8288C97.4148 53.5427 96.2547 53.9888 94.8716 54.2119C94.2915 54.3012 93.176 54.3012 91.4805 54.3458C88.0449 54.3904 85.1893 53.1857 82.8245 50.7317L83.5384 50.1516C84.9216 51.7133 86.3494 52.7395 87.8218 53.2303C87.1971 52.8288 86.5278 52.2041 85.8585 51.4456C85.1893 50.687 84.6985 50.0178 84.3861 49.3931L85.4124 48.8131C86.0816 50.687 87.2417 51.981 88.9373 52.7395C89.8296 53.0965 90.7666 53.3196 91.7036 53.3196C94.2023 53.3642 96.1209 52.918 97.4595 52.0256C98.8873 51.044 99.6012 49.7054 99.6012 48.0099C99.5565 45.3774 97.6379 43.1018 93.8453 41.1832C90.9897 39.8 89.4281 38.9969 89.1603 38.7738C87.5094 37.703 86.6171 36.409 86.4832 34.9812C86.394 33.8211 86.7509 32.7949 87.5987 31.9917C88.4464 31.1886 89.5173 30.787 90.7666 30.787C91.2574 30.787 91.7929 30.8316 92.2837 30.9655C89.1157 31.2778 87.5987 32.5718 87.6433 34.8473C87.6879 36.1413 88.3126 37.2121 89.5619 38.0153C89.6958 38.1045 91.1236 38.8184 93.8453 40.1124C95.8532 41.094 97.5041 42.2095 98.7534 43.5034C100.137 44.9312 100.85 46.4036 100.85 47.8314C100.85 48.8577 100.761 49.6162 100.583 50.107C100.27 50.9994 99.4673 51.8918 98.3072 52.8288ZM98.4857 47.653C98.4857 48.4561 98.3072 49.17 97.9949 49.7054C97.8164 50.0178 97.3256 50.5978 96.5671 51.3563C97.0579 50.6424 97.3702 49.9731 97.4595 49.4377C97.4595 49.3039 97.4595 48.8131 97.5041 47.9207C97.5041 46.6714 96.924 45.5559 95.7193 44.5743C94.9608 43.9496 93.2207 42.968 90.5435 41.5848C88.3572 40.4693 86.8848 39.5769 86.1709 38.9523C84.7877 37.703 84.0738 36.1859 84.0738 34.4012C84.0738 33.018 84.6538 31.8133 85.8585 30.787C87.2417 29.6269 89.1157 29.0023 91.4805 29.0023C94.2469 29.0023 97.0579 29.6716 99.8243 30.9655C99.9581 30.5193 100.092 30.207 100.181 30.0731L100.895 30.3408C100.895 30.3855 100.85 30.4747 100.761 30.5639C100.717 30.6532 100.672 30.7424 100.672 30.787C100.672 30.8316 100.583 31.0547 100.404 31.4563C100.36 31.5902 100.27 31.8579 100.181 32.1702C99.0657 31.4563 97.7718 30.8763 96.3886 30.5193C97.1471 31.0101 97.7718 31.5009 98.3072 32.0364C98.6195 32.3487 99.155 32.8841 99.8243 33.5534C99.5565 34.535 99.4227 35.3382 99.3781 35.9628L98.798 35.6951V35.3828V34.892C98.798 34.8027 98.798 34.6689 98.8426 34.535C98.8426 34.4012 98.8426 34.2673 98.8426 34.2227C98.8426 34.0888 98.8426 33.9996 98.8873 33.9104C96.924 31.3225 94.47 30.0285 91.5251 30.0285C89.6958 30.0285 88.1787 30.4301 87.0186 31.1886C85.7693 32.0364 85.1893 33.2411 85.3677 34.7581C85.5462 36.409 86.2155 37.703 87.4202 38.6846C87.7325 38.9523 88.8926 39.6216 90.9005 40.6924C94.0238 42.3879 95.8978 43.4588 96.4778 43.905C97.8164 44.9312 98.4857 46.1805 98.4857 47.653Z" fill="#F7AB42"/>
  <path d="M120.081 52.8288C119.189 53.5427 118.029 53.9888 116.645 54.2119C116.065 54.3012 114.95 54.3012 113.254 54.3458C109.819 54.3904 106.963 53.1857 104.598 50.7317L105.312 50.1516C106.695 51.7133 108.123 52.7395 109.596 53.2303C108.971 52.8288 108.302 52.2041 107.632 51.4456C106.963 50.687 106.472 50.0178 106.16 49.3931L107.186 48.8131C107.856 50.687 109.016 51.981 110.711 52.7395C111.604 53.0965 112.541 53.3196 113.478 53.3196C115.976 53.3642 117.895 52.918 119.233 52.0256C120.661 51.044 121.375 49.7054 121.375 48.0099C121.33 45.3774 119.412 43.1018 115.619 41.1832C112.764 39.8 111.202 38.9969 110.934 38.7738C109.283 37.703 108.391 36.409 108.257 34.9812C108.123 33.8211 108.525 32.7949 109.373 31.9917C110.22 31.1886 111.291 30.787 112.541 30.787C113.031 30.787 113.567 30.8316 114.058 30.9655C110.89 31.2778 109.373 32.5718 109.417 34.8473C109.462 36.1413 110.087 37.2121 111.336 38.0153C111.47 38.1045 112.897 38.8184 115.619 40.1124C117.627 41.094 119.278 42.2095 120.527 43.5034C121.911 44.9312 122.624 46.4036 122.624 47.8314C122.624 48.8577 122.535 49.6162 122.357 50.107C122.044 50.9994 121.286 51.8918 120.081 52.8288ZM120.26 47.653C120.26 48.4561 120.081 49.17 119.769 49.7054C119.59 50.0178 119.1 50.5978 118.341 51.3563C118.832 50.6424 119.144 49.9731 119.233 49.4377C119.233 49.3039 119.233 48.8131 119.278 47.9207C119.278 46.6714 118.698 45.5559 117.493 44.5743C116.735 43.9496 114.995 42.968 112.317 41.5848C110.131 40.4693 108.659 39.5769 107.945 38.9523C106.562 37.703 105.848 36.1859 105.848 34.4012C105.848 33.018 106.428 31.8133 107.632 30.787C109.016 29.6269 110.89 29.0023 113.254 29.0023C116.021 29.0023 118.832 29.6716 121.598 30.9655C121.732 30.5193 121.866 30.207 121.955 30.0731L122.669 30.3408C122.624 30.3855 122.624 30.4747 122.535 30.5639C122.446 30.6532 122.446 30.7424 122.446 30.787C122.446 30.8316 122.357 31.0547 122.178 31.4563C122.134 31.5902 122.044 31.8579 121.955 32.1702C120.84 31.4563 119.546 30.8763 118.163 30.5193C118.921 31.0101 119.546 31.5009 120.081 32.0364C120.393 32.3487 120.929 32.8841 121.598 33.5534C121.375 34.535 121.197 35.3382 121.152 35.9628L120.572 35.6951V35.3828V34.892C120.572 34.8027 120.572 34.6689 120.617 34.535C120.617 34.4012 120.617 34.2673 120.617 34.2227C120.617 34.0888 120.661 33.9996 120.661 33.9104C118.698 31.3225 116.244 30.0285 113.299 30.0285C111.47 30.0285 109.953 30.4301 108.793 31.1886C107.543 32.0364 106.963 33.2411 107.142 34.7581C107.32 36.409 107.989 37.703 109.194 38.6846C109.506 38.9523 110.667 39.6216 112.674 40.6924C115.798 42.3879 117.672 43.4588 118.252 43.905C119.59 44.9312 120.26 46.1805 120.26 47.653Z" fill="#F7AB42"/>
  <path d="M146.808 48.6346L147.879 49.2593C145.514 52.6949 142.301 54.3458 138.286 54.212C135.118 54.0781 132.396 52.918 130.165 50.6425C127.934 48.3669 126.774 45.5559 126.64 42.1649C126.506 38.283 127.666 35.1151 130.165 32.7503C128.737 35.1151 127.979 37.7476 127.979 40.6478C127.979 41.1386 127.979 41.6741 128.023 42.2095C128.291 45.2436 129.317 47.7868 131.102 49.8393C133.021 52.0703 135.43 53.2304 138.286 53.275C140.383 53.275 142.123 52.8734 143.506 51.981C144.532 51.3564 145.648 50.2409 146.808 48.6346ZM146.808 36.1859L146.005 35.829C146.138 35.1151 146.317 34.535 146.451 34.0442C145.871 33.0626 144.934 32.1702 143.684 31.3671C142.346 30.564 141.007 30.1178 139.713 30.0732C136.233 29.8947 133.645 31.0102 131.994 33.5534C130.7 35.5167 130.076 37.9707 130.21 41.0048C130.388 46.0913 132.485 49.8393 136.501 52.2487C134.002 51.6687 132.039 50.1516 130.656 47.7422C129.585 45.779 129.005 43.5034 128.916 41.0048C128.826 38.3723 129.317 36.0967 130.388 34.0889C132.128 30.7424 135.251 29.0915 139.713 29.1362C141.81 29.1362 144.354 29.627 147.299 30.6086L147.477 30.207C147.522 30.1178 147.566 29.9393 147.656 29.7608C147.656 29.7162 147.745 29.5824 147.834 29.4039L148.637 29.7608C148.592 29.8054 148.593 29.9393 148.548 30.0732L148.325 30.6532C148.236 30.9209 148.102 31.3225 147.879 31.8133C146.451 31.144 145.201 30.6978 144.22 30.5193C145.157 31.1886 146.317 32.2595 147.656 33.7765C147.254 34.535 146.986 35.3382 146.808 36.1859Z" fill="#F7AB42"/>
  <path d="M73.5883 48.6346L74.6591 49.2593C72.2943 52.6949 69.0818 54.3458 65.0661 54.212C61.8981 54.0781 59.1764 52.918 56.9454 50.6425C54.7145 48.3669 53.5544 45.5559 53.4205 42.1649C53.2867 38.283 54.4468 35.1151 56.9454 32.7503C55.5176 35.1151 54.7591 37.7476 54.7591 40.6478C54.7591 41.1386 54.7591 41.6741 54.8037 42.2095C55.0714 45.2436 56.0977 47.7868 57.8824 49.8393C59.801 52.0703 62.2105 53.2304 65.0661 53.275C67.1632 53.275 68.9033 52.8734 70.2865 51.981C71.3573 51.3564 72.4282 50.2409 73.5883 48.6346ZM73.5883 36.1859L72.7851 35.829C72.919 35.1151 73.0975 34.535 73.2313 34.0442C72.6513 33.0626 71.7143 32.1702 70.4649 31.3671C69.1264 30.564 67.7878 30.1178 66.4939 30.0732C63.0136 29.8947 60.4257 31.0102 58.7748 33.5534C57.4809 35.5167 56.8562 37.9707 56.99 41.0048C57.1685 46.0913 59.2656 49.8393 63.2813 52.2487C60.7827 51.6687 58.8194 50.1516 57.4362 47.7422C56.3654 45.779 55.7853 43.5034 55.6961 41.0048C55.6069 38.3723 56.0977 36.0967 57.1685 34.0889C58.9087 30.7424 62.032 29.0915 66.4939 29.1362C68.591 29.1362 71.1342 29.627 74.0791 30.6086L74.2575 30.207C74.3022 30.1178 74.3468 29.9393 74.436 29.7608C74.436 29.7162 74.5253 29.5824 74.6145 29.4039L75.4176 29.7608C75.373 29.8054 75.373 29.9393 75.3284 30.0732L75.1053 30.6532C75.0161 30.9209 74.8822 31.3225 74.6591 31.8133C73.2313 31.144 71.982 30.6978 71.0004 30.5193C71.9374 31.1886 73.0975 32.2595 74.436 33.7765C74.0791 34.535 73.8114 35.3382 73.5883 36.1859Z" fill="#F7AB42"/>
  <path d="M163.45 53.2749C166.083 53.2749 168.18 52.4272 169.786 50.7316C171.526 48.9469 172.374 46.4036 172.374 43.1464C172.374 42.7895 172.374 42.4325 172.33 42.031C172.017 36.5875 169.742 32.8841 165.548 30.9209C168.002 31.3224 170.009 32.661 171.482 34.892C172.865 36.8998 173.579 39.3092 173.668 42.0756C173.757 46.0021 172.731 49.0361 170.634 51.2225C168.76 53.1411 166.306 54.1673 163.317 54.2119C159.836 54.3012 156.936 53.0072 154.571 50.4639C152.206 47.876 151.091 44.7527 151.225 41.1386C151.359 37.5691 152.474 34.8027 154.616 32.8841C153.813 34.4011 153.277 35.6951 153.01 36.6321C152.653 37.8814 152.474 39.3538 152.474 41.0047C152.474 44.5296 153.5 47.4745 155.508 49.7947C157.605 52.1595 160.238 53.3195 163.45 53.2749ZM164.298 29.0469C167.912 29.1361 170.813 30.5193 172.999 33.1518C175.096 35.6505 176.122 38.6846 175.988 42.2541C175.899 44.7973 175.319 46.939 174.204 48.6792C173.579 49.7054 172.82 50.5086 171.928 51.0886C173.445 49.17 174.337 46.8052 174.605 43.9942C174.65 43.5034 174.65 43.0126 174.65 42.5218C174.65 39.0861 173.624 36.1859 171.616 33.7765C169.608 31.3671 167.109 30.1177 164.209 30.0285C160.416 29.8946 157.739 31.2332 156.178 33.9996C155.151 35.7843 154.661 37.9707 154.705 40.5585C154.794 45.8236 156.981 49.7054 161.175 52.2041C158.721 51.624 156.758 50.1516 155.33 47.8314C153.991 45.6897 153.367 43.2357 153.411 40.4693C153.456 37.5691 154.17 35.0704 155.598 33.018C157.516 30.207 160.416 28.913 164.298 29.0469Z" fill="#F7AB42"/>
  <path d="M58.3727 65.3666C58.3727 63.9834 58.3727 63.7157 58.3727 63.448C58.3727 63.1357 58.2835 63.0018 57.9712 62.9126C57.8819 62.9126 57.7481 62.868 57.6142 62.868C57.525 62.868 57.4804 62.868 57.4804 62.7787C57.4804 62.7341 57.525 62.6895 57.6588 62.6895C58.1497 62.6895 58.7297 62.7341 58.9528 62.7341C59.1759 62.7341 59.7559 62.6895 60.1129 62.6895C60.2467 62.6895 60.2914 62.6895 60.2914 62.7787C60.2914 62.8234 60.2467 62.868 60.1129 62.868C60.0236 62.868 59.979 62.868 59.8452 62.9126C59.5775 62.9572 59.5328 63.0911 59.4882 63.448C59.4882 63.7604 59.4882 63.9834 59.4882 65.3666V67.0621C59.4882 67.4637 59.5328 67.9099 59.5328 68.3561C59.5328 68.8915 59.4882 69.4716 59.3097 69.9624C59.1313 70.4978 58.6405 71.1671 57.7481 71.7025C57.6142 71.7917 57.4804 71.8364 57.3019 71.9256C57.2573 71.9702 57.168 71.9702 57.1234 71.9702C57.0788 71.9702 57.0342 71.9256 57.0342 71.881C57.0342 71.8364 57.0788 71.7917 57.2127 71.7025C57.3465 71.6579 57.4804 71.524 57.6588 71.3456C58.3727 70.6317 58.3281 69.7393 58.3281 67.9545V65.3666H58.3727Z" fill="#59595B"/>
  <path d="M73.9893 65.3666C73.9893 63.9834 73.9893 63.7157 73.9893 63.448C73.9893 63.1357 73.9001 63.0018 73.5877 62.9126C73.4985 62.9126 73.3646 62.868 73.2308 62.868C73.1415 62.868 73.0969 62.868 73.0969 62.7787C73.0969 62.7341 73.1415 62.6895 73.2754 62.6895C73.5431 62.6895 73.7662 62.6895 74.0339 62.6895C74.257 62.6895 74.4801 62.6895 74.614 62.6895C74.9263 62.6895 76.7111 62.6895 76.8895 62.6895C77.068 62.6895 77.2019 62.6449 77.2911 62.6449C77.3357 62.6449 77.3803 62.6003 77.425 62.6003C77.4696 62.6003 77.4696 62.6449 77.4696 62.6895C77.4696 62.7341 77.425 62.868 77.3803 63.2695C77.3803 63.3588 77.3357 63.7603 77.3357 63.8496C77.3357 63.8942 77.2911 63.9388 77.2465 63.9388C77.2019 63.9388 77.1572 63.8942 77.1572 63.805C77.1572 63.7603 77.1572 63.5819 77.1126 63.4926C77.068 63.3142 76.9788 63.2249 76.488 63.1803C76.3541 63.1803 75.3725 63.1357 75.194 63.1357C75.1494 63.1357 75.1494 63.1803 75.1494 63.2249V65.5451C75.1494 65.5897 75.1494 65.6343 75.194 65.6343C75.3725 65.6343 76.4433 65.6343 76.6664 65.6343C76.8895 65.6343 77.0234 65.5897 77.1126 65.5005C77.1572 65.4112 77.2019 65.3666 77.2465 65.3666C77.2911 65.3666 77.2911 65.3666 77.2911 65.4559C77.2911 65.5451 77.2465 65.6343 77.2019 66.1251C77.2019 66.3036 77.1572 66.6606 77.1572 66.7498C77.1572 66.839 77.1572 66.9283 77.068 66.9283C77.0234 66.9283 76.9788 66.8837 76.9788 66.839C76.9788 66.7498 76.9788 66.616 76.9341 66.5267C76.8895 66.3482 76.7557 66.2144 76.4433 66.1698C76.2649 66.1698 75.3725 66.1251 75.1494 66.1251C75.1048 66.1251 75.1048 66.1698 75.1048 66.2144V66.9283C75.1048 67.2406 75.1048 68.0884 75.1048 68.3561C75.1048 68.9807 75.2832 69.1146 76.1756 69.1146C76.3987 69.1146 76.8003 69.1146 77.0234 69.0254C77.2465 68.9361 77.3803 68.713 77.425 68.3561C77.425 68.2668 77.4696 68.2222 77.5142 68.2222C77.6034 68.2222 77.6034 68.3115 77.6034 68.4007C77.6034 68.6238 77.5142 69.2485 77.4696 69.4269C77.4249 69.65 77.3357 69.65 76.9788 69.65C76.3095 69.65 75.7741 69.65 75.4171 69.6054C75.0155 69.6054 74.7478 69.5608 74.4801 69.5608C74.3909 69.5608 74.1678 69.5608 73.9447 69.5608C73.7216 69.5608 73.4985 69.5608 73.32 69.5608C73.1862 69.5608 73.1415 69.5162 73.1415 69.4716C73.1415 69.4269 73.1862 69.3823 73.2754 69.3823C73.4093 69.3823 73.5431 69.3823 73.5877 69.3377C73.7662 69.2931 73.8108 69.1146 73.8554 68.8469C73.9001 68.4453 73.9001 67.7314 73.9001 66.9283V65.3666H73.9893Z" fill="#59595B"/>
  <path d="M90.7662 63.6265C90.677 63.2695 90.5431 63.0911 90.4093 63.0018C90.32 62.9572 90.1416 62.9126 90.0523 62.9126C89.9631 62.9126 89.9185 62.9126 89.9185 62.8234C89.9185 62.7787 90.0077 62.7341 90.0969 62.7341C90.5877 62.7341 91.0785 62.7787 91.1678 62.7787C91.257 62.7787 91.6586 62.7341 92.194 62.7341C92.3279 62.7341 92.3725 62.7787 92.3725 62.8234C92.3725 62.9126 92.2833 62.9126 92.194 62.9126C92.1048 62.9126 92.0155 62.9126 91.9709 62.9572C91.8817 63.0018 91.8817 63.0464 91.8817 63.1357C91.8817 63.2695 91.9709 63.5819 92.0602 63.9834C92.194 64.5635 93.0418 67.3299 93.2203 67.8653H93.2649L95.0496 63.1357C95.1389 62.868 95.1835 62.8234 95.2727 62.8234C95.362 62.8234 95.4066 62.9572 95.5404 63.2695L97.4144 67.8653H97.459C97.6375 67.2406 98.3514 64.8312 98.6638 63.805C98.7084 63.5819 98.753 63.4034 98.753 63.2695C98.753 63.1357 98.6638 63.0018 98.3068 63.0018C98.2176 63.0018 98.1729 62.9572 98.1729 62.9126C98.1729 62.868 98.2622 62.8234 98.396 62.8234C98.8869 62.8234 99.2438 62.868 99.333 62.868C99.3777 62.868 99.7792 62.8234 100.092 62.8234C100.181 62.8234 100.27 62.8234 100.27 62.9126C100.27 62.9572 100.225 63.0018 100.136 63.0018C100.047 63.0018 99.9131 63.0018 99.8238 63.0464C99.6008 63.1357 99.5115 63.4926 99.333 64.0281C98.9315 65.1882 97.9499 68.0884 97.5037 69.4269C97.4144 69.7393 97.3698 69.8731 97.2359 69.8731C97.1467 69.8731 97.1021 69.7839 96.9682 69.4269L95.0942 64.8758C94.9158 65.322 93.7111 68.5792 93.3095 69.4269C93.131 69.7839 93.0864 69.9178 92.9972 69.9178C92.9079 69.9178 92.8633 69.8285 92.7741 69.5608L90.7662 63.6265Z" fill="#59595B"/>
  <path d="M113.299 65.3666C113.299 63.9834 113.299 63.7157 113.299 63.448C113.299 63.1357 113.209 63.0018 112.897 62.9126C112.808 62.9126 112.674 62.868 112.54 62.868C112.451 62.868 112.406 62.868 112.406 62.7787C112.406 62.7341 112.451 62.6895 112.585 62.6895C112.852 62.6895 113.076 62.6895 113.343 62.6895C113.566 62.6895 113.789 62.6895 113.923 62.6895C114.236 62.6895 116.02 62.6895 116.199 62.6895C116.377 62.6895 116.511 62.6449 116.6 62.6449C116.645 62.6449 116.69 62.6003 116.734 62.6003C116.779 62.6003 116.779 62.6449 116.779 62.6895C116.779 62.7341 116.734 62.868 116.69 63.2695C116.69 63.3588 116.645 63.7603 116.645 63.8496C116.645 63.8942 116.6 63.9388 116.556 63.9388C116.511 63.9388 116.467 63.8942 116.467 63.805C116.467 63.7603 116.467 63.5819 116.422 63.4926C116.377 63.3142 116.288 63.2249 115.797 63.1803C115.663 63.1803 114.682 63.1357 114.503 63.1357C114.459 63.1357 114.459 63.1803 114.459 63.2249V65.5451C114.459 65.5897 114.459 65.6343 114.503 65.6343C114.682 65.6343 115.753 65.6343 115.976 65.6343C116.199 65.6343 116.333 65.5897 116.422 65.5005C116.467 65.4112 116.511 65.3666 116.556 65.3666C116.6 65.3666 116.6 65.3666 116.6 65.4559C116.6 65.5451 116.556 65.6343 116.511 66.1251C116.511 66.3036 116.467 66.6606 116.467 66.7498C116.467 66.839 116.467 66.9283 116.377 66.9283C116.333 66.9283 116.288 66.8837 116.288 66.839C116.288 66.7498 116.288 66.616 116.243 66.5267C116.199 66.3482 116.065 66.2144 115.753 66.1698C115.574 66.1698 114.682 66.1251 114.459 66.1251C114.414 66.1251 114.414 66.1698 114.414 66.2144V66.9283C114.414 67.2406 114.414 68.0884 114.414 68.3561C114.414 68.9807 114.593 69.1146 115.485 69.1146C115.708 69.1146 116.11 69.1146 116.333 69.0254C116.556 68.9361 116.69 68.713 116.734 68.3561C116.734 68.2668 116.779 68.2222 116.824 68.2222C116.913 68.2222 116.913 68.3115 116.913 68.4007C116.913 68.6238 116.824 69.2485 116.779 69.4269C116.734 69.65 116.645 69.65 116.288 69.65C115.619 69.65 115.083 69.65 114.726 69.6054C114.325 69.6054 114.057 69.5608 113.789 69.5608C113.7 69.5608 113.477 69.5608 113.254 69.5608C113.031 69.5608 112.808 69.5608 112.629 69.5608C112.495 69.5608 112.451 69.5162 112.451 69.4716C112.451 69.4269 112.495 69.3823 112.585 69.3823C112.719 69.3823 112.852 69.3823 112.897 69.3377C113.076 69.2931 113.12 69.1146 113.165 68.8469C113.209 68.4453 113.209 67.7314 113.209 66.9283V65.3666H113.299Z" fill="#59595B"/>
  <path d="M131.994 66.9729C131.994 68.133 131.994 68.7577 132.173 68.9361C132.307 69.07 132.574 69.1146 133.288 69.1146C133.779 69.1146 134.136 69.1146 134.359 68.8469C134.448 68.713 134.582 68.4899 134.582 68.3115C134.582 68.2222 134.627 68.1776 134.671 68.1776C134.716 68.1776 134.761 68.2222 134.761 68.3115C134.761 68.4007 134.716 69.1146 134.627 69.3377C134.582 69.5162 134.537 69.6054 134.047 69.6054C133.377 69.6054 132.931 69.6054 132.53 69.5608C132.128 69.5608 131.771 69.5162 131.414 69.5162C131.325 69.5162 131.102 69.5162 130.879 69.5162C130.656 69.5162 130.433 69.5162 130.254 69.5162C130.12 69.5162 130.076 69.4716 130.076 69.4269C130.076 69.3823 130.12 69.3377 130.209 69.3377C130.343 69.3377 130.477 69.3377 130.522 69.2931C130.7 69.2485 130.745 69.07 130.789 68.8023C130.834 68.4007 130.834 67.6868 130.834 66.8837V65.2774C130.834 63.8942 130.834 63.6265 130.834 63.3588C130.834 63.0464 130.745 62.9126 130.433 62.8233C130.343 62.8233 130.254 62.7787 130.12 62.7787C130.031 62.7787 129.986 62.7787 129.986 62.6895C129.986 62.6449 130.031 62.6003 130.165 62.6003C130.611 62.6003 131.146 62.6449 131.414 62.6449C131.637 62.6449 132.307 62.6003 132.663 62.6003C132.797 62.6003 132.842 62.6002 132.842 62.6895C132.842 62.7341 132.797 62.7787 132.663 62.7787C132.574 62.7787 132.396 62.7787 132.307 62.8233C132.039 62.868 131.994 63.0018 131.95 63.3588C131.95 63.6711 131.95 63.8942 131.95 65.2774V66.9729H131.994Z" fill="#59595B"/>
  <path d="M148.19 65.3666C148.19 63.9834 148.19 63.7157 148.19 63.448C148.19 63.1357 148.101 63.0018 147.789 62.9126C147.7 62.9126 147.566 62.868 147.432 62.868C147.343 62.868 147.298 62.868 147.298 62.7787C147.298 62.7341 147.343 62.6895 147.477 62.6895C147.967 62.6895 148.547 62.7341 148.726 62.7341C149.038 62.7341 149.708 62.6895 150.02 62.6895C150.6 62.6895 151.225 62.7341 151.715 63.0911C151.983 63.2695 152.34 63.7157 152.34 64.3404C152.34 65.0097 152.072 65.6343 151.135 66.3929C151.938 67.4191 152.563 68.2222 153.099 68.8023C153.589 69.3377 153.991 69.3823 154.125 69.427C154.214 69.427 154.303 69.4716 154.392 69.4716C154.482 69.4716 154.482 69.5162 154.482 69.5608C154.482 69.65 154.437 69.65 154.303 69.65H153.456C152.965 69.65 152.697 69.6054 152.474 69.4716C152.072 69.2485 151.715 68.8469 151.225 68.133C150.868 67.6422 150.421 67.0175 150.332 66.8837C150.288 66.8391 150.243 66.8391 150.154 66.8391H149.351C149.306 66.8391 149.261 66.8391 149.261 66.9283V67.0622C149.261 67.9099 149.261 68.6238 149.306 69.0254C149.351 69.2931 149.395 69.4716 149.663 69.5162C149.797 69.5162 150.02 69.5608 150.109 69.5608C150.198 69.5608 150.198 69.6054 150.198 69.65C150.198 69.6947 150.154 69.7393 150.02 69.7393C149.484 69.7393 148.815 69.6947 148.681 69.6947C148.503 69.6947 147.923 69.7393 147.566 69.7393C147.432 69.7393 147.387 69.6947 147.387 69.65C147.387 69.6054 147.432 69.5608 147.521 69.5608C147.655 69.5608 147.789 69.5608 147.834 69.5162C148.012 69.4716 148.057 69.2931 148.101 69.0254C148.146 68.6238 148.146 67.9099 148.146 67.1068V65.3666H148.19ZM149.261 66.0805C149.261 66.1698 149.261 66.2144 149.351 66.259C149.529 66.3036 149.797 66.3482 150.064 66.3482C150.421 66.3482 150.555 66.3036 150.689 66.2144C150.957 66.0359 151.225 65.5897 151.225 64.8312C151.225 63.5373 150.377 63.1803 149.841 63.1803C149.618 63.1803 149.44 63.1803 149.351 63.2249C149.306 63.2249 149.261 63.2695 149.261 63.3588V66.0805Z" fill="#59595B"/>
  <path d="M167.734 67.2406C167.734 66.7498 167.645 66.5267 167.511 66.3036C167.466 66.1698 166.217 64.1619 165.904 63.6711C165.681 63.3142 165.458 63.0911 165.28 63.0018C165.146 62.9572 165.012 62.868 164.878 62.868C164.789 62.868 164.744 62.868 164.744 62.7787C164.744 62.7341 164.789 62.6895 164.923 62.6895C165.101 62.6895 165.771 62.7341 166.083 62.7341C166.261 62.7341 166.663 62.6895 167.065 62.6895C167.154 62.6895 167.198 62.7341 167.198 62.7787C167.198 62.8234 167.154 62.8234 167.02 62.868C166.931 62.868 166.886 62.9572 166.886 63.0465C166.886 63.1357 166.931 63.2249 166.975 63.3588C167.109 63.6265 168.359 65.8128 168.537 66.0805C168.626 65.8574 169.786 63.8496 169.92 63.5819C170.009 63.4034 170.054 63.2249 170.054 63.0911C170.054 63.0018 170.009 62.9126 169.876 62.868C169.786 62.868 169.697 62.8234 169.697 62.7787C169.697 62.7341 169.742 62.6895 169.831 62.6895C170.143 62.6895 170.411 62.7341 170.679 62.7341C170.857 62.7341 171.482 62.6895 171.66 62.6895C171.75 62.6895 171.839 62.6895 171.839 62.7787C171.839 62.8234 171.75 62.868 171.66 62.868C171.571 62.868 171.393 62.9126 171.259 62.9572C171.08 63.0465 170.946 63.1357 170.768 63.4034C170.456 63.7604 169.206 65.9021 169.028 66.3036C168.894 66.616 168.894 66.9283 168.894 67.196V67.9545C168.894 68.0884 168.894 68.49 168.939 68.8469C168.939 69.1146 169.028 69.2931 169.296 69.3377C169.429 69.3377 169.608 69.3823 169.742 69.3823C169.831 69.3823 169.876 69.4269 169.876 69.4716C169.876 69.5162 169.786 69.5608 169.697 69.5608C169.117 69.5608 168.537 69.5162 168.314 69.5162C168.091 69.5162 167.511 69.5608 167.198 69.5608C167.065 69.5608 167.02 69.5608 167.02 69.4716C167.02 69.4269 167.065 69.3823 167.154 69.3823C167.288 69.3823 167.377 69.3823 167.466 69.3377C167.645 69.2931 167.734 69.1146 167.734 68.8469C167.778 68.4453 167.778 68.0884 167.778 67.9545V67.2406H167.734Z" fill="#59595B"/>
</svg>